<svg xmlns="http://www.w3.org/2000/svg" viewBox="0 0 310 302">
	<path fill="#50A8E8" d="M114.46 255.53c-3.43.4-5.26-.75-6.83-3.49-17.93-31.2-35.96-62.35-54.08-93.45-1.64-2.8-1.67-4.91
	                        0-7.75 18.1-31.1 36.03-62.31 54.19-93.39 1.02-1.75 3.68-3.59 5.61-3.62 17.82-.28 35.65-.16
	                        53.48-.15.8 0 1.6.18 3.18.36-.99 1.93-1.7 3.49-2.55 4.97-17.33 30.01-34.59 60.07-52.1 
	                        90.07-2.4 4.1-2.55 7.1-.1 11.27 17.64 30.02 35.01 60.21 52.46 90.35.74 1.28 1.39 2.61 2.61
	                        4.92-18.94 0-37.17 0-55.85 0z"/>
	<path fill="#62C982" d="M207.78 182.17c14.06 24.36 27.95 48.41 42.25 
	                        73.17-2.25.22-3.65.47-5.04.47-16.99.03-33.99-.06-50.97.09-3.24.03-5.12-1.01-6.75-3.85-17.9-31.21-35.91-62.36-53.98-93.47-1.51-2.6-1.67-4.63-.11-7.32 
	                        18.26-31.39 36.36-62.87 54.67-94.23.9-1.54 3.22-3.16 4.9-3.18 17.82-.23 35.65-.14
	                        53.47-.11.92 0 1.84.32 3.46.61-1.1 2.16-1.9 3.91-2.86 5.57-17.4 30.16-34.76 60.33-52.31
	                        90.4-1.95 3.35-2 5.81.03 9.08 4.57 7.35 8.74 14.95 13.25 22.77z"/>
</svg>